<svg width="32" height="32" viewBox="0 0 32 32" fill="none" xmlns="http://www.w3.org/2000/svg">
<path d="M15.9782 31.8863H15.9081C7.13645 31.8863 0 24.7498 0 15.9782V15.9081C0 7.13647 7.13645 0 15.9081 0H15.9782C24.7498 0 31.8863 7.13647 31.8863 15.9081V15.9782C31.8863 24.7498 24.7498 31.8863 15.9782 31.8863ZM15.9081 1.07932C7.73115 1.07932 1.07932 7.73117 1.07932 15.9081V15.9782C1.07932 24.1551 7.73115 30.807 15.9081 30.807H15.9782C24.1551 30.807 30.807 24.1551 30.807 15.9782V15.9081C30.807 7.73117 24.1551 1.07932 15.9782 1.07932H15.9081Z" fill="#323232" style="fill:#323232;fill:color(display-p3 0.1961 0.1961 0.1961);fill-opacity:1;"/>
<path d="M18.0887 12.3678V15.7234H22.2398L21.5825 20.2436H18.0887V30.658C17.3882 30.7551 16.6716 30.8058 15.9441 30.8058C15.1044 30.8058 14.2798 30.7389 13.4768 30.6094V20.2436H9.64844V15.7234H13.4768V11.6177C13.4768 9.07051 15.5415 7.0047 18.0898 7.0047V7.00686C18.0973 7.00686 18.1038 7.0047 18.1114 7.0047H22.2408V10.914H19.5425C18.7406 10.914 18.0898 11.5648 18.0898 12.3667L18.0887 12.3678Z" fill="#323232" style="fill:#323232;fill:color(display-p3 0.1961 0.1961 0.1961);fill-opacity:1;"/>
</svg>
