<svg width="32" height="32" viewBox="0 0 32 32" fill="none" xmlns="http://www.w3.org/2000/svg">
<path d="M15.9782 31.8863H15.9081C7.13645 31.8863 0 24.7498 0 15.9782V15.9081C0 7.13644 7.13645 0 15.9081 0H15.9782C24.7498 0 31.8863 7.13644 31.8863 15.9081V15.9782C31.8863 24.7498 24.7498 31.8863 15.9782 31.8863ZM15.9081 1.07932C7.73116 1.07932 1.07932 7.73114 1.07932 15.9081V15.9782C1.07932 24.1551 7.73116 30.807 15.9081 30.807H15.9782C24.1551 30.807 30.807 24.1551 30.807 15.9782V15.9081C30.807 7.73114 24.1551 1.07932 15.9782 1.07932H15.9081Z" fill="#323232" style="fill:#323232;fill:color(display-p3 0.1961 0.1961 0.1961);fill-opacity:1;"/>
<path d="M20.7109 6.80731H11.1783C8.54479 6.80731 6.40234 8.94976 6.40234 11.5833V20.3042C6.40234 22.9377 8.54479 25.0802 11.1783 25.0802H20.7109C23.3444 25.0802 25.4868 22.9377 25.4868 20.3042V11.5833C25.4868 8.94976 23.3444 6.80731 20.7109 6.80731ZM8.08716 11.5833C8.08716 9.87905 9.47408 8.49211 11.1783 8.49211H20.7109C22.4151 8.49211 23.802 9.87905 23.802 11.5833V20.3042C23.802 22.0084 22.4151 23.3953 20.7109 23.3953H11.1783C9.47408 23.3953 8.08716 22.0084 8.08716 20.3042V11.5833Z" fill="#323232" style="fill:#323232;fill:color(display-p3 0.1961 0.1961 0.1961);fill-opacity:1;"/>
<path d="M15.9425 20.3849C18.3914 20.3849 20.3849 18.3925 20.3849 15.9425C20.3849 13.4924 18.3925 11.5 15.9425 11.5C13.4924 11.5 11.5 13.4924 11.5 15.9425C11.5 18.3925 13.4924 20.3849 15.9425 20.3849ZM15.9425 13.1859C17.4632 13.1859 18.7001 14.4228 18.7001 15.9435C18.7001 17.4643 17.4632 18.7012 15.9425 18.7012C14.4217 18.7012 13.1848 17.4643 13.1848 15.9435C13.1848 14.4228 14.4217 13.1859 15.9425 13.1859Z" fill="#323232" style="fill:#323232;fill:color(display-p3 0.1961 0.1961 0.1961);fill-opacity:1;"/>
<path d="M20.7985 12.2172C21.458 12.2172 21.9955 11.6809 21.9955 11.0205C21.9955 10.3601 21.4591 9.82373 20.7985 9.82373C20.138 9.82373 19.6016 10.3601 19.6016 11.0205C19.6016 11.6809 20.138 12.2172 20.7985 12.2172Z" fill="#323232" style="fill:#323232;fill:color(display-p3 0.1961 0.1961 0.1961);fill-opacity:1;"/>
</svg>
