<svg width="32" height="32" viewBox="0 0 32 32" fill="none" xmlns="http://www.w3.org/2000/svg">
<path d="M15.9782 31.8863H15.9081C7.13645 31.8863 0 24.7498 0 15.9782V15.9081C0 7.13644 7.13645 0 15.9081 0H15.9782C24.7498 0 31.8863 7.13644 31.8863 15.9081V15.9782C31.8863 24.7498 24.7498 31.8863 15.9782 31.8863ZM15.9081 1.07932C7.73116 1.07932 1.07932 7.73114 1.07932 15.9081V15.9782C1.07932 24.1551 7.73116 30.807 15.9081 30.807H15.9782C24.1551 30.807 30.807 24.1551 30.807 15.9782V15.9081C30.807 7.73114 24.1551 1.07932 15.9782 1.07932H15.9081Z" fill="#323232" style="fill:#323232;fill:color(display-p3 0.1961 0.1961 0.1961);fill-opacity:1;"/>
<path d="M6.78644 7.5141L13.8905 17.0121L6.74219 24.7346H8.35145L14.6104 17.9738L19.667 24.7346H25.1424L17.639 14.7024L24.293 7.5141H22.6837L16.9201 13.7407L12.2629 7.5141H6.78751H6.78644ZM9.1523 8.69921H11.6671L22.7744 23.5495H20.2596L9.1523 8.69921Z" fill="#323232" style="fill:#323232;fill:color(display-p3 0.1961 0.1961 0.1961);fill-opacity:1;"/>
</svg>
