<svg width="42" height="42" viewBox="0 0 42 42" fill="none" xmlns="http://www.w3.org/2000/svg">
<rect width="42" height="42" rx="21" fill="#D7F4F0" fill-opacity="0.5" style="fill:#D7F4F0;fill:color(display-p3 0.8431 0.9569 0.9412);fill-opacity:0.5;"/>
<path d="M27.8906 28.875H14.1094C13.0221 28.875 12.1406 27.9936 12.1406 26.9062V18.0469C12.1406 16.9596 13.0221 16.0781 14.1094 16.0781H27.8906C28.9779 16.0781 29.8594 16.9596 29.8594 18.0469V26.9062C29.8594 27.9936 28.9779 28.875 27.8906 28.875Z" stroke="#3CA997" style="stroke:#3CA997;stroke:color(display-p3 0.2353 0.6627 0.5922);stroke-opacity:1;" stroke-width="1.47656"/>
<path d="M25.4297 22.9688C25.1579 22.9688 24.9375 22.7484 24.9375 22.4766C24.9375 22.2047 25.1579 21.9844 25.4297 21.9844C25.7015 21.9844 25.9219 22.2047 25.9219 22.4766C25.9219 22.7484 25.7015 22.9688 25.4297 22.9688Z" fill="#3CA997" stroke="#3CA997" style="fill:#3CA997;fill:color(display-p3 0.2353 0.6627 0.5922);fill-opacity:1;stroke:#3CA997;stroke:color(display-p3 0.2353 0.6627 0.5922);stroke-opacity:1;" stroke-width="1.47656" stroke-linecap="round" stroke-linejoin="round"/>
<path d="M26.9062 16.0781V14.7032C26.9062 13.4096 25.6801 12.4676 24.4302 12.8009L13.6021 15.6884C12.7403 15.9182 12.1406 16.6987 12.1406 17.5907V18.0469" stroke="#3CA997" style="stroke:#3CA997;stroke:color(display-p3 0.2353 0.6627 0.5922);stroke-opacity:1;" stroke-width="1.47656"/>
</svg>
