<svg width="42" height="42" viewBox="0 0 42 42" fill="none" xmlns="http://www.w3.org/2000/svg">
<rect width="42" height="42" rx="21" fill="#D7F4F0" fill-opacity="0.5" style="fill:#D7F4F0;fill:color(display-p3 0.8431 0.9569 0.9412);fill-opacity:0.5;"/>
<path d="M21 30.8438C26.4366 30.8438 30.8438 26.4366 30.8438 21C30.8438 15.5634 26.4366 11.1562 21 11.1562C15.5634 11.1562 11.1562 15.5634 11.1562 21C11.1562 26.4366 15.5634 30.8438 21 30.8438Z" stroke="#3CA997" style="stroke:#3CA997;stroke:color(display-p3 0.2353 0.6627 0.5922);stroke-opacity:1;" stroke-width="1.47656" stroke-linecap="round" stroke-linejoin="round"/>
<path d="M11.6484 21.4922L17.0625 23.4609L16.0781 26.9062L17.0625 29.8594" stroke="#3CA997" style="stroke:#3CA997;stroke:color(display-p3 0.2353 0.6627 0.5922);stroke-opacity:1;" stroke-width="1.47656" stroke-linecap="round" stroke-linejoin="round"/>
<path d="M25.9219 29.3672L25.4297 26.9062L22.9688 25.9219V22.4766L25.9219 21.4922L30.3516 21.9844" stroke="#3CA997" style="stroke:#3CA997;stroke:color(display-p3 0.2353 0.6627 0.5922);stroke-opacity:1;" stroke-width="1.47656" stroke-linecap="round" stroke-linejoin="round"/>
<path d="M27.8906 14.6016L27.3984 16.0781L23.9531 16.5703V19.5234L26.4141 18.5391H28.3828L30.3516 19.5234" stroke="#3CA997" style="stroke:#3CA997;stroke:color(display-p3 0.2353 0.6627 0.5922);stroke-opacity:1;" stroke-width="1.47656" stroke-linecap="round" stroke-linejoin="round"/>
<path d="M11.6484 19.5234L14.1094 17.5547L16.5703 17.0625L18.5391 14.1094L17.5547 12.1406" stroke="#3CA997" style="stroke:#3CA997;stroke:color(display-p3 0.2353 0.6627 0.5922);stroke-opacity:1;" stroke-width="1.47656" stroke-linecap="round" stroke-linejoin="round"/>
</svg>
