<svg width="42" height="42" viewBox="0 0 42 42" fill="none" xmlns="http://www.w3.org/2000/svg">
<rect width="42" height="42" rx="21" fill="#D7F4F0" fill-opacity="0.5" style="fill:#D7F4F0;fill:color(display-p3 0.8431 0.9569 0.9412);fill-opacity:0.5;"/>
<path d="M20.6127 11.4928C20.8348 11.2997 21.1652 11.2997 21.3873 11.4928L23.3052 13.1589C23.4261 13.2639 23.5844 13.3153 23.7439 13.3014L26.2748 13.0808C26.568 13.0552 26.8353 13.2494 26.9016 13.5362L27.4739 16.0114C27.5099 16.1674 27.6078 16.3021 27.745 16.3845L29.9222 17.6937C30.1744 17.8454 30.2765 18.1596 30.1616 18.4305L29.1697 20.7694C29.1072 20.9168 29.1072 21.0832 29.1697 21.2306L30.1616 23.5695C30.2765 23.8404 30.1744 24.1546 29.9222 24.3063L27.745 25.6155C27.6078 25.6979 27.5099 25.8326 27.4739 25.9886L26.9016 28.4638C26.8353 28.7506 26.568 28.9448 26.2748 28.9192L23.7439 28.6986C23.5844 28.6847 23.4261 28.7361 23.3052 28.8411L21.3873 30.5072C21.1652 30.7003 20.8348 30.7003 20.6127 30.5072L18.6948 28.8411C18.5739 28.7361 18.4156 28.6847 18.2561 28.6986L15.7252 28.9192C15.432 28.9448 15.1647 28.7506 15.0984 28.4638L14.5261 25.9886C14.4901 25.8326 14.3922 25.6979 14.255 25.6155L12.0778 24.3063C11.8256 24.1546 11.7235 23.8404 11.8384 23.5695L12.8303 21.2306C12.8928 21.0832 12.8928 20.9168 12.8303 20.7694L11.8384 18.4305C11.7235 18.1596 11.8256 17.8454 12.0778 17.6937L14.255 16.3845C14.3922 16.3021 14.4901 16.1674 14.5261 16.0114L15.0984 13.5362C15.1647 13.2494 15.432 13.0552 15.7252 13.0808L18.2561 13.3014C18.4156 13.3153 18.5739 13.2639 18.6948 13.1589L20.6127 11.4928Z" stroke="#3CA997" style="stroke:#3CA997;stroke:color(display-p3 0.2353 0.6627 0.5922);stroke-opacity:1;" stroke-width="1.47656"/>
<path d="M18.0469 21.9844L20.0156 23.9531L24.9375 19.0313" stroke="#3CA997" style="stroke:#3CA997;stroke:color(display-p3 0.2353 0.6627 0.5922);stroke-opacity:1;" stroke-width="1.47656" stroke-linecap="round" stroke-linejoin="round"/>
</svg>
