<svg width="12" height="12" viewBox="0 0 12 12" fill="none" xmlns="http://www.w3.org/2000/svg">
<path d="M5.99992 0C5.88124 0.000318879 5.76517 0.0349173 5.66568 0.0996343C5.56619 0.164351 5.48752 0.256431 5.43912 0.3648L4.06952 3.2664C4.02657 3.36017 3.96119 3.44193 3.87915 3.50444C3.79711 3.56694 3.70093 3.60828 3.59912 3.6248L0.537521 4.0904C0.419691 4.11302 0.310218 4.16722 0.220791 4.24721C0.131364 4.3272 0.0653418 4.42997 0.0297744 4.54456C-0.005793 4.65915 -0.00956975 4.78124 0.0188474 4.89781C0.0472646 5.01438 0.106809 5.12104 0.191121 5.2064L2.40632 7.464C2.55432 7.6176 2.62152 7.832 2.58632 8.0432L2.06312 11.2328C2.04587 11.3246 2.0487 11.4191 2.07142 11.5097C2.09414 11.6003 2.13621 11.685 2.19474 11.7578C2.25327 11.8306 2.32687 11.8899 2.41048 11.9315C2.4941 11.9732 2.58574 11.9963 2.67912 11.9992C2.78113 11.9987 2.88135 11.9723 2.97032 11.9224L5.70872 10.4168C5.79786 10.3675 5.89806 10.3416 5.99992 10.3416C6.10179 10.3416 6.20198 10.3675 6.29112 10.4168L9.02952 11.9224C9.11824 11.9722 9.21817 11.9986 9.31992 11.9992C9.41337 11.9964 9.50511 11.9734 9.58882 11.9318C9.67253 11.8902 9.74623 11.8309 9.80484 11.7581C9.86346 11.6852 9.9056 11.6006 9.92836 11.5099C9.95113 11.4192 9.95398 11.3247 9.93672 11.2328L9.41352 8.0432C9.39608 7.93931 9.40329 7.83277 9.43455 7.73217C9.46581 7.63156 9.52027 7.53971 9.59352 7.464L11.8095 5.2056C11.8941 5.12021 11.9538 5.01343 11.9823 4.89669C12.0108 4.77996 12.007 4.65767 11.9713 4.54293C11.9356 4.42818 11.8694 4.32531 11.7798 4.24531C11.6901 4.16531 11.5804 4.11121 11.4623 4.0888L8.40072 3.624C8.29877 3.60761 8.20243 3.56632 8.12024 3.50381C8.03805 3.44129 7.97254 3.35947 7.92952 3.2656L6.56072 0.3648C6.51232 0.256431 6.43365 0.164351 6.33416 0.0996343C6.23467 0.0349173 6.11861 0.000318879 5.99992 0Z" fill="#FFBA33" style="fill:#FFBA33;fill:color(display-p3 1.0000 0.7294 0.2000);fill-opacity:1;"/>
</svg>
