<svg width="52" height="52" viewBox="0 0 52 52" fill="none" xmlns="http://www.w3.org/2000/svg">
<rect width="52" height="52" rx="26" fill="#E57643" style="fill:#E57643;fill:color(display-p3 0.8978 0.4622 0.2622);fill-opacity:1;"/>
<g clip-path="url(#clip0_470_6390)">
<g clip-path="url(#clip1_470_6390)">
<path d="M36.4796 20.7796C36.4796 21.3396 36.4396 21.886 36.3732 22.4068C35.7465 22.1332 35.0699 21.9924 34.386 21.9932C33.6167 21.9923 32.8579 22.1715 32.1703 22.5165C31.4827 22.8614 30.8853 23.3624 30.426 23.9796C29.963 23.3633 29.3631 22.8631 28.6736 22.5183C27.9842 22.1736 27.224 21.9938 26.4532 21.9932C23.7196 21.9932 21.506 24.2196 21.506 26.9796C21.506 30.5532 23.3996 33.286 25.506 35.1396C25.4396 35.1796 25.3732 35.1932 25.306 35.2196C24.906 35.3668 24.2396 35.3668 23.8396 35.2196C20.386 34.0332 12.666 29.126 12.666 20.7796C12.666 17.0996 15.626 14.126 19.2796 14.126C21.4532 14.126 23.3732 15.166 24.5732 16.7796C25.1884 15.9562 25.9871 15.2876 26.9059 14.827C27.8247 14.3663 28.8382 14.1263 29.866 14.126C33.5196 14.126 36.4796 17.0996 36.4796 20.7796Z" stroke="white" style="stroke:white;stroke-opacity:1;" stroke-width="1.6" stroke-linecap="round" stroke-linejoin="round"/>
<path d="M39.334 26.9796C39.334 33.2196 33.5604 36.8996 30.974 37.7796C30.6668 37.8868 30.174 37.8868 29.8668 37.7796C28.7604 37.4068 27.0668 36.5132 25.5068 35.1396C23.4004 33.2868 21.5068 30.5532 21.5068 26.9796C21.5068 24.2196 23.7204 21.9932 26.454 21.9932C28.0804 21.9932 29.5204 22.7796 30.4268 23.9796C30.8861 23.3624 31.4835 22.8614 32.1711 22.5164C32.8587 22.1715 33.6175 21.9923 34.3868 21.9932C35.094 21.9932 35.7604 22.1396 36.374 22.4068C37.2582 22.7991 38.009 23.4405 38.5347 24.2526C39.0603 25.0647 39.3381 26.0122 39.334 26.9796Z" stroke="white" style="stroke:white;stroke-opacity:1;" stroke-width="1.6" stroke-linecap="round" stroke-linejoin="round"/>
</g>
</g>
<defs>
<clipPath id="clip0_470_6390">
<rect width="32" height="32" fill="white" style="fill:white;fill-opacity:1;" transform="translate(10 9.99316)"/>
</clipPath>
<clipPath id="clip1_470_6390">
<rect width="32" height="32" fill="white" style="fill:white;fill-opacity:1;" transform="translate(10 9.99316)"/>
</clipPath>
</defs>
</svg>
