<svg width="52" height="52" viewBox="0 0 52 52" fill="none" xmlns="http://www.w3.org/2000/svg">
<rect width="52" height="52" rx="26" fill="#3CB8AC" style="fill:#3CB8AC;fill:color(display-p3 0.2367 0.7233 0.6742);fill-opacity:1;"/>
<g clip-path="url(#clip0_18_6919)">
<g clip-path="url(#clip1_18_6919)">
<path d="M22 30L30 22M29.3256 29.3336H29.3376M22.6592 22.6664H22.6712M15.3184 29.5472L13.292 27.5208C12.8947 27.1199 12.6719 26.5783 12.6719 26.014C12.6719 25.4496 12.8947 24.9081 13.292 24.5072L15.3184 22.4808C15.6648 22.1336 15.9448 21.4536 15.9448 20.9736V18.1072C15.9448 16.9336 16.9048 15.9736 18.0784 15.9736H20.9448C21.4248 15.9736 22.1048 15.6936 22.452 15.3472L24.4784 13.3208C24.8793 12.9235 25.4208 12.7007 25.9852 12.7007C26.5495 12.7007 27.0911 12.9235 27.492 13.3208L29.5184 15.3472C29.8648 15.6936 30.5456 15.9736 31.0256 15.9736H33.892C35.0648 15.9736 36.0256 16.9336 36.0256 18.1072V20.9736C36.0256 21.4536 36.3056 22.1336 36.652 22.4808L38.6784 24.5072C39.0756 24.9081 39.2984 25.4496 39.2984 26.014C39.2984 26.5783 39.0756 27.1199 38.6784 27.5208L36.652 29.5472C36.3056 29.8936 36.0256 30.5744 36.0256 31.0536V33.9208C36.0256 35.0936 35.0656 36.0544 33.892 36.0544H31.0256C30.5456 36.0544 29.8656 36.3344 29.5184 36.6808L27.492 38.7072C27.0911 39.1044 26.5495 39.3272 25.9852 39.3272C25.4208 39.3272 24.8793 39.1044 24.4784 38.7072L22.452 36.6808C22.1056 36.3336 21.4248 36.0544 20.9456 36.0544H18.0784C17.5129 36.0527 16.971 35.8272 16.5713 35.4273C16.1715 35.0274 15.9462 34.4855 15.9448 33.92V31.0528C15.9448 30.56 15.6648 29.8808 15.3184 29.5472Z" stroke="white" style="stroke:white;stroke-opacity:1;" stroke-width="1.6" stroke-linecap="round" stroke-linejoin="round"/>
</g>
</g>
<defs>
<clipPath id="clip0_18_6919">
<rect width="32" height="32" fill="white" style="fill:white;fill-opacity:1;" transform="translate(10 10)"/>
</clipPath>
<clipPath id="clip1_18_6919">
<rect width="32" height="32" fill="white" style="fill:white;fill-opacity:1;" transform="translate(10 10)"/>
</clipPath>
</defs>
</svg>
